# xmcd
#
# Track frame offsets: 
#        150
#        12723
#        33771
#        45669
#        63417
#        79890
#        102288
#        120486
#        136284
#        152682
#        169905
#        183903
#        200976
#        212949
#        230772
#        244470
#        264618
#        280566
#        297339
#        299187
#
# Disc length: 4223 seconds
#
# Revision: 0
# Processed by: cddbd v1.5.2PL0 Copyright (c) Steve Scherf et al.
# Submitted via: ExactAudioCopy v1.1
#
DISCID=3c107d14
DTITLE=David Booker - Hobos and Mojos (An Acoustic Collection)
DYEAR=2011
DGENRE=Blues
TTITLE0=Good Evenin Everybody
TTITLE1=Do You Have a Garter Belt?
TTITLE2=Blow Me (A Kiss)
TTITLE3=Shoot My Baby
TTITLE4=Hoodoo On You
TTITLE5=Fat Man Blues
TTITLE6=Her Mind is Gone
TTITLE7=Juke Joint Blues
TTITLE8=Bring Back My Cadillac
TTITLE9=Swamp Witch
TTITLE10=I Love My Baby
TTITLE11=Moanin in the Mountains
TTITLE12=If You Wanna Be Happy
TTITLE13=Please Warm My Weiner
TTITLE14=It's Your Voodoo Workin'
TTITLE15=Girl from the North Country
TTITLE16=Staggerlee
TTITLE17=Rainy Day Women #12&35
TTITLE18=Zero Attention Span Blues
TTITLE19=Shoot My Baby (Version 2)
EXTD=
EXTT0=
EXTT1=
EXTT2=
EXTT3=
EXTT4=
EXTT5=
EXTT6=
EXTT7=
EXTT8=
EXTT9=
EXTT10=
EXTT11=
EXTT12=
EXTT13=
EXTT14=
EXTT15=
EXTT16=
EXTT17=
EXTT18=
EXTT19=
PLAYORDER=
